<?xml version="1.0"?>
<svg width="1296" height="1728" xmlns="http://www.w3.org/2000/svg" xmlns:svg="http://www.w3.org/2000/svg">
 <g class="layer">
  <title>Layer 1</title>
  <ellipse cx="648" cy="864" rx="300" ry="300" fill="red"/>
  <path d="m638.789,504c6.141,0 12.282,0 18.424,0c1.154,0.116 2.308,0.3 3.463,0.334c19.051,0.572 37.923,2.773 56.611,6.436c24.602,4.821 48.459,12.135 71.492,22.053c54.386,23.418 100.336,58.079 137.902,103.829c22.182,27.013 39.97,56.696 53.496,88.927c10.43,24.848 17.928,50.558 22.523,77.105c2.292,13.245 3.873,26.579 4.576,40.01c0.198,3.788 0.479,7.57 0.723,11.356c0,6.756 0,13.511 0,20.267c-0.106,0.781 -0.286,1.562 -0.311,2.346c-0.573,18.061 -2.593,35.96 -5.923,53.719c-7.105,37.906 -20.032,73.715 -38.74,107.426c-22.575,40.677 -51.938,75.698 -87.948,105.147c-19.784,16.179 -41.068,30.069 -63.812,41.718c-23.431,11.998 -47.891,21.318 -73.382,27.897c-22.204,5.729 -44.746,9.356 -67.648,10.703c-3.482,0.206 -6.963,0.482 -10.445,0.726c-7.86,0 -15.722,0 -23.582,0c-0.968,-0.115 -1.934,-0.258 -2.903,-0.344c-11.665,-1.025 -23.373,-1.723 -34.989,-3.147c-14.114,-1.729 -28.022,-4.703 -41.781,-8.341c-37.098,-9.806 -71.729,-25.183 -103.908,-46.067c-33.445,-21.706 -62.512,-48.248 -87.229,-79.527c-21.698,-27.459 -39.033,-57.458 -51.997,-89.976c-9.195,-23.065 -15.914,-46.836 -20.136,-71.3c-2.286,-13.243 -3.869,-26.575 -4.564,-40.005c-0.184,-3.539 -0.465,-7.072 -0.702,-10.607c0,-7.123 0,-14.247 0,-21.371c0.121,-1.209 0.313,-2.416 0.353,-3.628c0.445,-13.508 1.778,-26.937 3.828,-40.287c3.561,-23.202 9.298,-45.863 17.399,-67.901c21.666,-58.938 56.284,-108.962 103.753,-150.036c37.939,-32.827 80.974,-56.583 128.867,-71.505c16.931,-5.275 34.166,-9.358 51.735,-11.757c11.233,-1.534 22.56,-2.396 33.851,-3.487c3.656,-0.352 7.335,-0.482 11.004,-0.713zm9.099,638.179c154.01,0.038 278.027,-123.91 278.233,-278.08c0.204,-153.749 -123.899,-278.022 -277.753,-278.131c-154.306,-0.109 -278.227,123.554 -278.505,277.925c-0.279,153.767 124.084,278.246 278.025,278.286z" fill="col1" id="svg_1"/>
  <path clip-rule="evenodd" d="m647.888,1142.179c-153.941,-0.04 -278.303,-124.519 -278.025,-278.286c0.279,-154.371 124.2,-278.035 278.505,-277.925c153.854,0.109 277.957,124.382 277.753,278.131c-0.206,154.17 -124.224,278.118 -278.233,278.08zm242.55,-397.109c-1.131,-0.666 -2.187,-1.268 -3.225,-1.901c-3.762,-2.294 -7.629,-4.365 -10.88,-7.48c-8.557,-8.197 -17.267,-16.234 -25.948,-24.301c-12.742,-11.839 -26.423,-22.3 -42.403,-29.542c-12.348,-5.597 -25.111,-9.13 -38.745,-8.904c-12.013,0.2 -23.705,2.495 -34.853,6.83c-11.986,4.663 -23.786,9.834 -35.539,15.067c-13.946,6.211 -27.805,12.564 -42.721,16.244c-14.965,3.692 -30.057,6.619 -45.403,8.08c-13.221,1.259 -26.458,1.547 -39.727,0.539c-11.157,-0.849 -22.183,-2.457 -33.051,-5.061c-20.236,-4.847 -39.226,-12.758 -57.18,-23.277c-8.397,-4.919 -16.28,-10.313 -21.79,-18.56c-0.298,-0.447 -0.601,-0.893 -1.091,-1.621c-0.453,0.676 -0.597,0.957 -0.8,1.185c-21.271,23.811 -39.112,49.909 -52.655,78.879c-13.469,28.812 -21.94,58.994 -24.78,90.703c-0.174,1.946 -0.306,4.139 1.429,5.638c14.618,12.623 30.081,24.074 46.795,33.806c31.628,18.415 65.403,30.296 101.971,33.853c17.192,1.672 34.337,1.311 51.434,-0.941c17.498,-2.305 34.522,-6.631 51.143,-12.561c12.742,-4.545 25.84,-7.307 39.396,-7.479c14.083,-0.18 27.673,2.543 40.857,7.41c13.342,4.926 25.935,11.396 38.054,18.765c11.316,6.882 22.432,14.1 33.655,21.136c1.176,0.736 1.452,1.459 0.997,2.832c-18.738,56.664 -37.438,113.343 -56.14,170.021c-0.933,2.826 -1.842,5.658 -2.839,8.726c0.75,-0.136 1.22,-0.2 1.679,-0.307c8.827,-2.048 17.278,-5.02 24.902,-10.056c1.326,-0.876 2.866,-1.439 4.15,-2.366c0.866,-0.628 1.772,-1.526 2.124,-2.497c41.292,-114.108 82.533,-228.235 123.777,-342.363c2.455,-6.791 4.91,-13.58 7.407,-20.497zm-510.295,113.549c-0.074,8.709 1.128,16.809 3.167,24.795c2.2,8.621 6.385,16.42 10.113,24.412c10.992,23.553 27.594,42.317 48.765,57.172c20.241,14.201 42.593,23.592 66.659,29.022c11.156,2.517 22.45,3.946 33.877,4.472c14.683,0.676 29.131,-1.17 43.58,-3.478c9.343,-1.491 18.812,-1.496 27.925,1.257c8.309,2.506 16.361,5.855 24.57,8.712c3.414,1.187 6.388,3.034 9.31,5.091c1.163,0.817 1.409,1.468 0.952,2.813c-11.62,34.223 -23.196,68.462 -34.776,102.697c-1.564,4.626 -3.114,9.255 -4.714,14.011c8.893,3.407 17.945,4.401 27.297,4.034c26.218,-72.423 52.417,-144.8 78.624,-217.194c-5.837,-3.486 -11.842,-6.072 -18.038,-8.254c-15.67,-5.516 -31.482,-5.104 -47.25,-0.73c-11.562,3.205 -22.972,6.958 -34.477,10.373c-15.588,4.625 -31.585,6.912 -47.755,8.174c-18.619,1.453 -37.173,0.938 -55.625,-2c-20.94,-3.334 -40.991,-9.62 -60.213,-18.561c-21.633,-10.062 -41.496,-22.973 -60.315,-37.557c-3.816,-2.956 -7.568,-5.999 -11.676,-9.261z" fill="#ffffff" fill-rule="evenodd" id="svg_2"/>
  <path clip-rule="evenodd" d="m519.777,1141.212c-0.119,-0.041 -0.236,-0.08 -0.354,-0.121m-1.057,19.883" fill="col3" fill-rule="evenodd" id="svg_3"/>
  <g id="svg_4">
   <path d="m770.478,678.932c11.131,0 22.589,2.741 35.028,8.379c13.521,6.128 26.484,15.176 40.796,28.473l4.05,3.76c7.196,6.68 14.639,13.586 21.832,20.478c3.193,3.06 6.676,5.139 10.044,7.15c0.294,0.175 0.588,0.351 0.882,0.527c-1.134,3.139 -2.261,6.258 -3.385,9.369l-2.334,6.458l-5.226,14.458c-38.788,107.333 -78.893,218.308 -118.389,327.453c-0.043,0.037 -0.096,0.079 -0.155,0.123c-0.326,0.235 -0.877,0.518 -1.459,0.817c-0.752,0.386 -1.604,0.823 -2.487,1.407c-4.127,2.727 -8.739,4.936 -14.154,6.756l1.13,-3.425c17.826,-54.026 36.26,-109.893 54.424,-164.82c1.327,-4.004 0.049,-7.578 -3.506,-9.804c-3.922,-2.458 -7.903,-4.985 -11.753,-7.43c-7.165,-4.548 -14.574,-9.25 -21.972,-13.749c-13.617,-8.279 -26.404,-14.582 -39.093,-19.267c-14.002,-5.168 -28.006,-7.789 -41.624,-7.79c-0.463,0 -0.924,0.003 -1.388,0.009c-13.53,0.172 -27.051,2.732 -41.336,7.827c-16.773,5.984 -33.566,10.11 -49.91,12.264c-9.728,1.281 -19.537,1.931 -29.154,1.931c-6.966,0 -14.003,-0.341 -20.915,-1.013c-34.528,-3.358 -67.086,-14.175 -99.533,-33.066c-15.284,-8.898 -30.121,-19.593 -45.338,-32.684c0.011,-0.364 0.052,-0.822 0.071,-1.039c2.708,-30.244 10.864,-60.086 24.239,-88.697c11.938,-25.535 27.979,-50.036 47.732,-72.913c5.827,6.753 13.055,11.518 20.135,15.665c18.866,11.053 38.654,19.106 58.815,23.936c10.793,2.586 21.913,4.29 33.995,5.209c5.468,0.415 11.107,0.625 16.761,0.625c7.735,0 15.806,-0.395 23.989,-1.174c14.16,-1.348 29.296,-4.039 46.272,-8.228c14.622,-3.607 28.26,-9.69 41.448,-15.573l2.275,-1.014c10.622,-4.729 22.984,-10.176 35.273,-14.957c10.476,-4.074 21.503,-6.235 32.777,-6.423c0.382,-0.005 0.763,-0.008 1.143,-0.008m-312.595,-7.749c-0.453,0.676 -0.597,0.957 -0.8,1.185c-21.271,23.811 -39.112,49.909 -52.655,78.879c-13.469,28.812 -21.94,58.994 -24.78,90.703c-0.174,1.946 -0.306,4.139 1.429,5.638c14.618,12.623 30.081,24.074 46.795,33.806c31.628,18.415 65.403,30.296 101.971,33.853c7.174,0.697 14.338,1.041 21.496,1.041c9.995,0 19.976,-0.67 29.938,-1.982c17.498,-2.305 34.522,-6.631 51.143,-12.561c12.742,-4.545 25.84,-7.307 39.396,-7.479c0.438,-0.006 0.874,-0.009 1.312,-0.009c13.615,0.001 26.771,2.703 39.546,7.419c13.342,4.926 25.935,11.396 38.054,18.765c11.316,6.882 22.432,14.1 33.655,21.136c1.176,0.736 1.452,1.459 0.997,2.832c-18.738,56.664 -37.438,113.343 -56.14,170.021c-0.933,2.826 -1.842,5.658 -2.839,8.726c0.75,-0.136 1.22,-0.2 1.679,-0.307c8.827,-2.048 17.278,-5.02 24.902,-10.056c1.326,-0.876 2.866,-1.439 4.15,-2.366c0.866,-0.628 1.772,-1.526 2.124,-2.497c41.292,-114.108 82.533,-228.235 123.777,-342.363c2.453,-6.789 4.908,-13.579 7.405,-20.495c-1.131,-0.666 -2.187,-1.268 -3.225,-1.901c-3.762,-2.294 -7.629,-4.365 -10.88,-7.48c-8.557,-8.197 -17.267,-16.234 -25.948,-24.301c-12.742,-11.839 -26.423,-22.3 -42.403,-29.542c-11.974,-5.427 -24.337,-8.915 -37.507,-8.914c-0.411,0 -0.825,0.003 -1.238,0.01c-12.013,0.2 -23.705,2.495 -34.853,6.83c-11.986,4.663 -23.786,9.834 -35.539,15.067c-13.946,6.211 -27.805,12.564 -42.721,16.244c-14.965,3.692 -30.057,6.619 -45.403,8.08c-7.801,0.743 -15.606,1.147 -23.421,1.147c-5.431,0 -10.866,-0.195 -16.306,-0.608c-11.157,-0.849 -22.183,-2.457 -33.051,-5.061c-20.236,-4.847 -39.226,-12.758 -57.18,-23.277c-8.397,-4.919 -16.28,-10.313 -21.79,-18.56c-0.297,-0.45 -0.6,-0.895 -1.09,-1.623l0,0z" fill="col5" id="svg_5"/>
  </g>
  <path clip-rule="evenodd" d="m380.143,858.619c4.108,3.263 7.86,6.305 11.677,9.262c18.819,14.584 38.682,27.494 60.315,37.557c19.222,8.94 39.272,15.227 60.213,18.561c18.451,2.938 37.005,3.453 55.625,2c16.17,-1.262 32.167,-3.549 47.755,-8.174c11.505,-3.415 22.914,-7.168 34.477,-10.373c15.768,-4.374 31.58,-4.785 47.25,0.73c6.196,2.182 12.201,4.768 18.038,8.254c-26.207,72.395 -52.406,144.771 -78.624,217.194c-9.352,0.367 -18.404,-0.627 -27.297,-4.034c1.6,-4.756 3.149,-9.385 4.714,-14.011c11.58,-34.235 23.156,-68.475 34.776,-102.697c0.457,-1.346 0.211,-1.996 -0.952,-2.813c-2.922,-2.057 -5.896,-3.904 -9.31,-5.091c-8.209,-2.856 -16.262,-6.206 -24.57,-8.712c-9.112,-2.753 -18.582,-2.748 -27.925,-1.257c-14.449,2.308 -28.897,4.153 -43.58,3.478c-11.427,-0.525 -22.722,-1.955 -33.877,-4.472c-24.066,-5.431 -46.418,-14.821 -66.659,-29.022c-21.171,-14.854 -37.773,-33.619 -48.765,-57.172c-3.729,-7.992 -7.913,-15.791 -10.113,-24.412c-2.04,-7.987 -3.242,-16.087 -3.168,-24.796z" fill="col6" fill-rule="evenodd" id="svg_6"/>
 </g>

</svg>
